<?xml version="1.0" standalone="no"?>
<!DOCTYPE svg PUBLIC "-//W3C//DTD SVG 20010904//EN"
 "http://www.w3.org/TR/2001/REC-SVG-20010904/DTD/svg10.dtd">
<svg version="1.0" xmlns="http://www.w3.org/2000/svg"
 width="300.000000pt" height="300.000000pt" viewBox="0 0 300.000000 300.000000"
 preserveAspectRatio="xMidYMid meet">
<metadata>
Created by potrace 1.10, written by Peter Selinger 2001-2011
</metadata>
<g transform="translate(0.000000,300.000000) scale(0.100000,-0.100000)"
fill="#000000" stroke="none">
<path d="M1463 1537 c-825 -824 -1463 -1470 -1463 -1480 0 -9 6 -17 12 -17 17
0 2948 2931 2948 2948 0 6 -8 12 -17 12 -10 0 -656 -638 -1480 -1463z"/>
<path d="M1522 1508 c-799 -799 -1460 -1465 -1468 -1480 -13 -26 -13 -28 3
-28 23 0 2943 2919 2943 2943 0 9 -6 17 -12 17 -7 0 -667 -654 -1466 -1452z"/>
</g>
</svg>
